<?xml version="1.0" encoding="UTF-8"?>
<svg xmlns="http://www.w3.org/2000/svg" xmlns:xlink="http://www.w3.org/1999/xlink" viewBox="0 0 64 64" width="64px" height="64px">
<defs>
<linearGradient id="linear0" gradientUnits="userSpaceOnUse" x1="34.601559" y1="51.599998" x2="34.601559" y2="79.807999" gradientTransform="matrix(0.372093,0,0,0.372093,0,0)">
<stop offset="0" style="stop-color:rgb(54.11765%,70.588237%,100%);stop-opacity:1;"/>
<stop offset="1" style="stop-color:rgb(89.411765%,57.254905%,100%);stop-opacity:1;"/>
</linearGradient>
<linearGradient id="linear1" gradientUnits="userSpaceOnUse" x1="137.398438" y1="51.599998" x2="137.398438" y2="79.807999" gradientTransform="matrix(0.372093,0,0,0.372093,0,0)">
<stop offset="0" style="stop-color:rgb(54.11765%,70.588237%,100%);stop-opacity:1;"/>
<stop offset="1" style="stop-color:rgb(89.411765%,57.254905%,100%);stop-opacity:1;"/>
</linearGradient>
<linearGradient id="linear2" gradientUnits="userSpaceOnUse" x1="86" y1="29.76944" x2="86" y2="142.238632" gradientTransform="matrix(0.372093,0,0,0.372093,0,0)">
<stop offset="0" style="stop-color:rgb(10.196079%,42.745098%,100%);stop-opacity:1;"/>
<stop offset="1" style="stop-color:rgb(78.431374%,13.333334%,100%);stop-opacity:1;"/>
</linearGradient>
<linearGradient id="linear3" gradientUnits="userSpaceOnUse" x1="85.844131" y1="87.623253" x2="86.112877" y2="112.616997" gradientTransform="matrix(0.372093,0,0,0.372093,0,0)">
<stop offset="0" style="stop-color:rgb(54.11765%,70.588237%,100%);stop-opacity:1;"/>
<stop offset="1" style="stop-color:rgb(89.411765%,57.254905%,100%);stop-opacity:1;"/>
</linearGradient>
<linearGradient id="linear4" gradientUnits="userSpaceOnUse" x1="86" y1="29.76944" x2="86" y2="142.238632" gradientTransform="matrix(0.372093,0,0,0.372093,0,0)">
<stop offset="0" style="stop-color:rgb(10.196079%,42.745098%,100%);stop-opacity:1;"/>
<stop offset="1" style="stop-color:rgb(78.431374%,13.333334%,100%);stop-opacity:1;"/>
</linearGradient>
<linearGradient id="linear5" gradientUnits="userSpaceOnUse" x1="109.566689" y1="29.76944" x2="109.566689" y2="142.238632" gradientTransform="matrix(0.372093,0,0,0.372093,0,0)">
<stop offset="0" style="stop-color:rgb(10.196079%,42.745098%,100%);stop-opacity:1;"/>
<stop offset="1" style="stop-color:rgb(78.431374%,13.333334%,100%);stop-opacity:1;"/>
</linearGradient>
<linearGradient id="linear6" gradientUnits="userSpaceOnUse" x1="85.927437" y1="29.76944" x2="85.927437" y2="142.238632" gradientTransform="matrix(0.372093,0,0,0.372093,0,0)">
<stop offset="0" style="stop-color:rgb(10.196079%,42.745098%,100%);stop-opacity:1;"/>
<stop offset="1" style="stop-color:rgb(78.431374%,13.333334%,100%);stop-opacity:1;"/>
</linearGradient>
<linearGradient id="linear7" gradientUnits="userSpaceOnUse" x1="60.87188" y1="29.76944" x2="60.87188" y2="142.238632" gradientTransform="matrix(0.372093,0,0,0.372093,0,0)">
<stop offset="0" style="stop-color:rgb(10.196079%,42.745098%,100%);stop-opacity:1;"/>
<stop offset="1" style="stop-color:rgb(78.431374%,13.333334%,100%);stop-opacity:1;"/>
</linearGradient>
<linearGradient id="linear8" gradientUnits="userSpaceOnUse" x1="31.438379" y1="29.76944" x2="31.438379" y2="142.238632" gradientTransform="matrix(0.372093,0,0,0.372093,0,0)">
<stop offset="0" style="stop-color:rgb(10.196079%,42.745098%,100%);stop-opacity:1;"/>
<stop offset="1" style="stop-color:rgb(78.431374%,13.333334%,100%);stop-opacity:1;"/>
</linearGradient>
<linearGradient id="linear9" gradientUnits="userSpaceOnUse" x1="140.56163" y1="29.76944" x2="140.56163" y2="142.238632" gradientTransform="matrix(0.372093,0,0,0.372093,0,0)">
<stop offset="0" style="stop-color:rgb(10.196079%,42.745098%,100%);stop-opacity:1;"/>
<stop offset="1" style="stop-color:rgb(78.431374%,13.333334%,100%);stop-opacity:1;"/>
</linearGradient>
</defs>
<g id="surface31216913">
<path style=" stroke:none;fill-rule:nonzero;fill:url(#linear0);" d="M 12.804688 29.140625 C 13.980469 26.5 15.667969 24.160156 17.75 22.265625 C 17.582031 21.742188 17.308594 21.246094 16.890625 20.835938 L 16.410156 20.351562 C 14.609375 18.550781 11.6875 18.550781 9.882812 20.351562 L 9.550781 20.683594 C 7.484375 22.753906 7.484375 26.105469 9.550781 28.175781 C 10.433594 29.058594 11.664062 29.378906 12.804688 29.140625 Z M 12.804688 29.140625 "/>
<path style=" stroke:none;fill-rule:nonzero;fill:url(#linear1);" d="M 54.449219 20.683594 L 54.117188 20.351562 C 52.3125 18.550781 49.390625 18.550781 47.589844 20.351562 L 47.109375 20.832031 C 46.695312 21.246094 46.417969 21.742188 46.25 22.265625 C 48.335938 24.160156 50.019531 26.5 51.195312 29.136719 C 52.332031 29.375 53.566406 29.058594 54.449219 28.175781 C 56.515625 26.105469 56.515625 22.753906 54.449219 20.683594 Z M 54.449219 20.683594 "/>
<path style=" stroke:none;fill-rule:nonzero;fill:url(#linear2);" d="M 38.386719 53 L 25.613281 53 C 21.214844 53 17.144531 51.191406 14.15625 47.90625 C 11.136719 44.589844 9.648438 40.101562 10.074219 35.597656 C 11.128906 24.425781 20.242188 16 31.273438 16 L 32.726562 16 C 43.757812 16 52.871094 24.425781 53.925781 35.601562 C 54.351562 40.101562 52.863281 44.589844 49.839844 47.90625 C 46.855469 51.191406 42.785156 53 38.386719 53 Z M 31.273438 18 C 21.277344 18 13.019531 25.644531 12.0625 35.785156 C 11.691406 39.730469 12.992188 43.65625 15.636719 46.5625 C 18.242188 49.425781 21.785156 51 25.613281 51 L 38.386719 51 C 42.214844 51 45.757812 49.425781 48.363281 46.5625 C 51.007812 43.65625 52.308594 39.730469 51.9375 35.789062 C 50.980469 25.644531 42.722656 18 32.726562 18 Z M 31.273438 18 "/>
<path style=" stroke:none;fill-rule:nonzero;fill:url(#linear3);" d="M 36 38 C 36 40.210938 34.210938 42 32 42 C 29.789062 42 28 40.210938 28 38 C 28 35.789062 29.789062 31.332031 32 31.332031 C 34.210938 31.332031 36 35.789062 36 38 Z M 36 38 "/>
<path style=" stroke:none;fill-rule:nonzero;fill:url(#linear4);" d="M 32 43 C 29.242188 43 27 40.757812 27 38 C 27 35.65625 28.890625 30.332031 32 30.332031 C 35.109375 30.332031 37 35.65625 37 38 C 37 40.757812 34.757812 43 32 43 Z M 32 32.332031 C 30.703125 32.332031 29 35.898438 29 38 C 29 39.652344 30.347656 41 32 41 C 33.652344 41 35 39.652344 35 38 C 35 35.898438 33.296875 32.332031 32 32.332031 Z M 32 32.332031 "/>
<path style=" stroke:none;fill-rule:nonzero;fill:url(#linear5);" d="M 42.828125 38.117188 C 42.78125 38.117188 42.730469 38.113281 42.679688 38.105469 L 38.5625 37.492188 C 38.015625 37.410156 37.640625 36.902344 37.71875 36.355469 C 37.800781 35.808594 38.3125 35.445312 38.855469 35.515625 L 42.976562 36.128906 C 43.523438 36.207031 43.898438 36.71875 43.816406 37.265625 C 43.742188 37.761719 43.316406 38.117188 42.828125 38.117188 Z M 42.828125 38.117188 "/>
<path style=" stroke:none;fill-rule:nonzero;fill:url(#linear6);" d="M 32 46 C 30.691406 46 29.425781 45.605469 28.335938 44.859375 C 27.882812 44.550781 27.765625 43.925781 28.074219 43.472656 C 28.386719 43.015625 29.007812 42.898438 29.464844 43.210938 C 30.960938 44.230469 32.988281 44.242188 34.488281 43.238281 C 34.949219 42.929688 35.570312 43.054688 35.875 43.515625 C 36.183594 43.972656 36.058594 44.59375 35.601562 44.902344 C 34.527344 45.621094 33.28125 46 32 46 Z M 32 46 "/>
<path style=" stroke:none;fill-rule:nonzero;fill:url(#linear7);" d="M 20.589844 38.117188 C 20.101562 38.117188 19.675781 37.761719 19.601562 37.265625 C 19.519531 36.71875 19.898438 36.207031 20.445312 36.128906 L 24.5625 35.515625 C 25.113281 35.445312 25.617188 35.808594 25.699219 36.355469 C 25.78125 36.902344 25.402344 37.410156 24.855469 37.492188 L 20.738281 38.105469 C 20.6875 38.113281 20.640625 38.117188 20.589844 38.117188 Z M 20.589844 38.117188 "/>
<path style=" stroke:none;fill-rule:nonzero;fill:url(#linear8);" d="M 12.191406 30.667969 C 11.503906 30.9375 10.765625 31.082031 10.003906 31.082031 C 8.398438 31.082031 6.890625 30.457031 5.757812 29.324219 C 2.085938 25.652344 2.085938 19.683594 5.757812 16.015625 L 6.410156 15.363281 C 7.933594 13.839844 9.960938 13 12.113281 13 C 14.269531 13 16.296875 13.839844 17.820312 15.363281 L 18.765625 16.3125 C 19.835938 17.382812 20.394531 18.757812 20.484375 20.164062 C 21.097656 19.769531 21.734375 19.417969 22.390625 19.09375 C 22.097656 17.511719 21.34375 16.058594 20.183594 14.898438 L 19.234375 13.949219 C 17.332031 12.046875 14.804688 11 12.113281 11 C 9.425781 11 6.898438 12.046875 4.996094 13.949219 L 4.34375 14.601562 C -0.105469 19.050781 -0.105469 26.289062 4.34375 30.738281 C 5.855469 32.25 7.863281 33.082031 10.003906 33.082031 C 10.523438 33.082031 11.035156 33.03125 11.535156 32.933594 C 11.714844 32.160156 11.933594 31.40625 12.191406 30.667969 Z M 12.191406 30.667969 "/>
<path style=" stroke:none;fill-rule:nonzero;fill:url(#linear9);" d="M 59.65625 14.601562 L 59.003906 13.949219 C 57.101562 12.046875 54.574219 11 51.886719 11 C 49.195312 11 46.667969 12.046875 44.765625 13.949219 L 43.820312 14.898438 C 42.65625 16.058594 41.902344 17.511719 41.609375 19.09375 C 42.265625 19.417969 42.902344 19.769531 43.515625 20.164062 C 43.605469 18.761719 44.164062 17.382812 45.234375 16.3125 L 46.179688 15.363281 C 47.703125 13.839844 49.730469 13 51.886719 13 C 54.039062 13 56.066406 13.839844 57.589844 15.363281 L 58.242188 16.015625 C 61.914062 19.683594 61.914062 25.652344 58.242188 29.324219 C 57.109375 30.457031 55.601562 31.082031 53.996094 31.082031 C 53.234375 31.082031 52.496094 30.9375 51.808594 30.667969 C 52.066406 31.40625 52.285156 32.160156 52.464844 32.933594 C 52.964844 33.03125 53.476562 33.082031 53.996094 33.082031 C 56.136719 33.082031 58.144531 32.25 59.65625 30.738281 C 64.105469 26.289062 64.105469 19.050781 59.65625 14.601562 Z M 59.65625 14.601562 "/>
</g>
</svg>
